<mxfile host="app.diagrams.net" modified="2024-07-11T06:38:22.547Z" agent="Mozilla/5.0 (Windows NT 10.0; Win64; x64) AppleWebKit/537.36 (KHTML, like Gecko) Chrome/126.0.0.0 Safari/537.36" etag="QuOrT3bcSrkpduNo7zyX" version="24.6.4" type="device">
  <diagram name="Page-1" id="EKBBhz65BiRuwpl5lspX">
    <mxGraphModel dx="1985" dy="1050" grid="0" gridSize="10" guides="1" tooltips="1" connect="1" arrows="1" fold="1" page="1" pageScale="1" pageWidth="5500" pageHeight="55551" math="0" shadow="0">
      <root>
        <mxCell id="0" />
        <mxCell id="1" parent="0" />
        <mxCell id="secLKcbEcYvKdAL8T184-43" value="Employee" style="rounded=0;whiteSpace=wrap;html=1;fillColor=#ffe6cc;strokeColor=#d79b00;fontStyle=1;fontSize=14;" parent="1" vertex="1">
          <mxGeometry x="130" y="180" width="120" height="60" as="geometry" />
        </mxCell>
        <mxCell id="secLKcbEcYvKdAL8T184-44" value="&lt;b&gt;&lt;font style=&quot;font-size: 14px;&quot;&gt;employee_id&lt;/font&gt;&lt;/b&gt;" style="ellipse;whiteSpace=wrap;html=1;" parent="1" vertex="1">
          <mxGeometry x="15" y="62" width="115" height="58" as="geometry" />
        </mxCell>
        <mxCell id="secLKcbEcYvKdAL8T184-45" value="name" style="ellipse;whiteSpace=wrap;html=1;fontStyle=1;fontSize=14;" parent="1" vertex="1">
          <mxGeometry x="180" y="70" width="90" height="50" as="geometry" />
        </mxCell>
        <mxCell id="secLKcbEcYvKdAL8T184-46" value="VIEWS" style="rhombus;whiteSpace=wrap;html=1;fillColor=#dae8fc;strokeColor=#6c8ebf;fontStyle=1;fontSize=14;" parent="1" vertex="1">
          <mxGeometry x="390" y="170" width="80" height="80" as="geometry" />
        </mxCell>
        <mxCell id="secLKcbEcYvKdAL8T184-47" value="Payroll&lt;div style=&quot;font-size: 14px;&quot;&gt;&lt;br style=&quot;font-size: 14px;&quot;&gt;&lt;/div&gt;" style="rounded=0;whiteSpace=wrap;html=1;fillColor=#ffe6cc;strokeColor=#d79b00;fontStyle=1;fontSize=14;" parent="1" vertex="1">
          <mxGeometry x="830" y="183" width="120" height="60" as="geometry" />
        </mxCell>
        <mxCell id="secLKcbEcYvKdAL8T184-48" value="id" style="ellipse;whiteSpace=wrap;html=1;fontStyle=1;fontSize=14;" parent="1" vertex="1">
          <mxGeometry x="780" y="10" width="90" height="40" as="geometry" />
        </mxCell>
        <mxCell id="secLKcbEcYvKdAL8T184-49" value="client_id" style="ellipse;whiteSpace=wrap;html=1;fontStyle=1;fontSize=14;" parent="1" vertex="1">
          <mxGeometry x="1000" y="30" width="90" height="40" as="geometry" />
        </mxCell>
        <mxCell id="secLKcbEcYvKdAL8T184-50" value="pay_date" style="ellipse;whiteSpace=wrap;html=1;fontStyle=1;fontSize=14;" parent="1" vertex="1">
          <mxGeometry x="1070" y="90" width="90" height="40" as="geometry" />
        </mxCell>
        <mxCell id="secLKcbEcYvKdAL8T184-51" value="overtimes pay" style="ellipse;whiteSpace=wrap;html=1;fontStyle=1;fontSize=14;" parent="1" vertex="1">
          <mxGeometry x="1110" y="170" width="90" height="40" as="geometry" />
        </mxCell>
        <mxCell id="secLKcbEcYvKdAL8T184-53" value="incremenr" style="ellipse;whiteSpace=wrap;html=1;fontStyle=1;fontSize=14;" parent="1" vertex="1">
          <mxGeometry x="680" y="20" width="90" height="40" as="geometry" />
        </mxCell>
        <mxCell id="secLKcbEcYvKdAL8T184-55" value="no_of_hours_worked" style="ellipse;whiteSpace=wrap;html=1;fontStyle=1;fontSize=14;" parent="1" vertex="1">
          <mxGeometry x="1072" y="293" width="150" height="42" as="geometry" />
        </mxCell>
        <mxCell id="secLKcbEcYvKdAL8T184-56" value="&lt;b&gt;&lt;font style=&quot;font-size: 14px;&quot;&gt;employee_id&lt;/font&gt;&lt;/b&gt;" style="ellipse;whiteSpace=wrap;html=1;" parent="1" vertex="1">
          <mxGeometry x="890" y="13" width="90" height="40" as="geometry" />
        </mxCell>
        <mxCell id="secLKcbEcYvKdAL8T184-58" value="" style="endArrow=none;html=1;rounded=0;entryX=0.5;entryY=1;entryDx=0;entryDy=0;fontStyle=1;fontSize=14;" parent="1" target="secLKcbEcYvKdAL8T184-45" edge="1">
          <mxGeometry width="50" height="50" relative="1" as="geometry">
            <mxPoint x="190" y="180" as="sourcePoint" />
            <mxPoint x="240" y="130" as="targetPoint" />
          </mxGeometry>
        </mxCell>
        <mxCell id="secLKcbEcYvKdAL8T184-59" value="" style="endArrow=none;html=1;rounded=0;entryX=0.5;entryY=1;entryDx=0;entryDy=0;exitX=0.5;exitY=0;exitDx=0;exitDy=0;fontStyle=1;fontSize=14;" parent="1" source="secLKcbEcYvKdAL8T184-43" target="secLKcbEcYvKdAL8T184-44" edge="1">
          <mxGeometry width="50" height="50" relative="1" as="geometry">
            <mxPoint x="180" y="190" as="sourcePoint" />
            <mxPoint x="440" y="290" as="targetPoint" />
          </mxGeometry>
        </mxCell>
        <mxCell id="secLKcbEcYvKdAL8T184-61" value="" style="endArrow=none;html=1;rounded=0;entryX=0.5;entryY=1;entryDx=0;entryDy=0;exitX=0.5;exitY=0;exitDx=0;exitDy=0;fontStyle=1;fontSize=14;" parent="1" source="secLKcbEcYvKdAL8T184-47" target="secLKcbEcYvKdAL8T184-49" edge="1">
          <mxGeometry width="50" height="50" relative="1" as="geometry">
            <mxPoint x="869.9999999999999" y="200" as="sourcePoint" />
            <mxPoint x="1047.1000000000001" y="67.46" as="targetPoint" />
          </mxGeometry>
        </mxCell>
        <mxCell id="secLKcbEcYvKdAL8T184-62" value="" style="endArrow=none;html=1;rounded=0;exitX=0.5;exitY=0;exitDx=0;exitDy=0;fontStyle=1;fontSize=14;" parent="1" source="secLKcbEcYvKdAL8T184-47" target="secLKcbEcYvKdAL8T184-48" edge="1">
          <mxGeometry width="50" height="50" relative="1" as="geometry">
            <mxPoint x="870" y="200" as="sourcePoint" />
            <mxPoint x="840" y="50" as="targetPoint" />
          </mxGeometry>
        </mxCell>
        <mxCell id="secLKcbEcYvKdAL8T184-63" value="" style="endArrow=none;html=1;rounded=0;exitX=0.5;exitY=0;exitDx=0;exitDy=0;entryX=0.751;entryY=0.966;entryDx=0;entryDy=0;entryPerimeter=0;fontStyle=1;fontSize=14;" parent="1" source="secLKcbEcYvKdAL8T184-47" target="secLKcbEcYvKdAL8T184-53" edge="1">
          <mxGeometry width="50" height="50" relative="1" as="geometry">
            <mxPoint x="869.9999999999999" y="200" as="sourcePoint" />
            <mxPoint x="751.861465231785" y="61.642978893984036" as="targetPoint" />
          </mxGeometry>
        </mxCell>
        <mxCell id="secLKcbEcYvKdAL8T184-64" value="" style="endArrow=none;html=1;rounded=0;entryX=0;entryY=0.75;entryDx=0;entryDy=0;entryPerimeter=0;exitX=0.5;exitY=0;exitDx=0;exitDy=0;fontStyle=1;fontSize=14;" parent="1" source="secLKcbEcYvKdAL8T184-47" target="secLKcbEcYvKdAL8T184-50" edge="1">
          <mxGeometry width="50" height="50" relative="1" as="geometry">
            <mxPoint x="860" y="200" as="sourcePoint" />
            <mxPoint x="730" y="150" as="targetPoint" />
          </mxGeometry>
        </mxCell>
        <mxCell id="secLKcbEcYvKdAL8T184-65" value="" style="endArrow=none;html=1;rounded=0;entryX=0;entryY=0.5;entryDx=0;entryDy=0;exitX=1;exitY=0.5;exitDx=0;exitDy=0;fontStyle=1;fontSize=14;" parent="1" source="secLKcbEcYvKdAL8T184-47" target="secLKcbEcYvKdAL8T184-51" edge="1">
          <mxGeometry width="50" height="50" relative="1" as="geometry">
            <mxPoint x="510" y="310" as="sourcePoint" />
            <mxPoint x="560" y="260" as="targetPoint" />
          </mxGeometry>
        </mxCell>
        <mxCell id="secLKcbEcYvKdAL8T184-68" value="" style="endArrow=none;html=1;rounded=0;entryX=1;entryY=0.5;entryDx=0;entryDy=0;exitX=0.5;exitY=0;exitDx=0;exitDy=0;fontStyle=1;fontSize=14;" parent="1" source="secLKcbEcYvKdAL8T184-55" target="secLKcbEcYvKdAL8T184-47" edge="1">
          <mxGeometry width="50" height="50" relative="1" as="geometry">
            <mxPoint x="600" y="340" as="sourcePoint" />
            <mxPoint x="650" y="290" as="targetPoint" />
          </mxGeometry>
        </mxCell>
        <mxCell id="secLKcbEcYvKdAL8T184-69" value="" style="endArrow=none;html=1;rounded=0;entryX=0.5;entryY=0;entryDx=0;entryDy=0;exitX=0.5;exitY=1;exitDx=0;exitDy=0;fontStyle=1;fontSize=14;" parent="1" source="secLKcbEcYvKdAL8T184-56" target="secLKcbEcYvKdAL8T184-47" edge="1">
          <mxGeometry width="50" height="50" relative="1" as="geometry">
            <mxPoint x="470" y="340" as="sourcePoint" />
            <mxPoint x="520" y="290" as="targetPoint" />
          </mxGeometry>
        </mxCell>
        <mxCell id="secLKcbEcYvKdAL8T184-70" value="" style="endArrow=none;html=1;rounded=0;entryX=0;entryY=0.5;entryDx=0;entryDy=0;exitX=1;exitY=0.5;exitDx=0;exitDy=0;fontStyle=1;fontSize=14;" parent="1" source="secLKcbEcYvKdAL8T184-43" target="secLKcbEcYvKdAL8T184-46" edge="1">
          <mxGeometry width="50" height="50" relative="1" as="geometry">
            <mxPoint x="280" y="300" as="sourcePoint" />
            <mxPoint x="330" y="250" as="targetPoint" />
          </mxGeometry>
        </mxCell>
        <mxCell id="secLKcbEcYvKdAL8T184-110" value="1" style="edgeLabel;html=1;align=center;verticalAlign=middle;resizable=0;points=[];fontStyle=1;fontSize=14;" parent="secLKcbEcYvKdAL8T184-70" vertex="1" connectable="0">
          <mxGeometry x="0.1357" y="1" relative="1" as="geometry">
            <mxPoint x="-1" as="offset" />
          </mxGeometry>
        </mxCell>
        <mxCell id="secLKcbEcYvKdAL8T184-71" value="" style="endArrow=none;html=1;rounded=0;entryX=0;entryY=0.5;entryDx=0;entryDy=0;exitX=1;exitY=0.5;exitDx=0;exitDy=0;fontStyle=1;fontSize=14;" parent="1" source="secLKcbEcYvKdAL8T184-46" target="secLKcbEcYvKdAL8T184-47" edge="1">
          <mxGeometry width="50" height="50" relative="1" as="geometry">
            <mxPoint x="410" y="330" as="sourcePoint" />
            <mxPoint x="460" y="280" as="targetPoint" />
          </mxGeometry>
        </mxCell>
        <mxCell id="secLKcbEcYvKdAL8T184-72" value="Admin" style="rounded=0;whiteSpace=wrap;html=1;fillColor=#ffe6cc;strokeColor=#d79b00;fontStyle=1;fontSize=14;" parent="1" vertex="1">
          <mxGeometry x="130" y="370" width="120" height="60" as="geometry" />
        </mxCell>
        <mxCell id="secLKcbEcYvKdAL8T184-73" value="&lt;b&gt;&lt;font style=&quot;font-size: 14px;&quot;&gt;admin_id&lt;/font&gt;&lt;/b&gt;" style="ellipse;whiteSpace=wrap;html=1;" parent="1" vertex="1">
          <mxGeometry x="16" y="522" width="95" height="50" as="geometry" />
        </mxCell>
        <mxCell id="secLKcbEcYvKdAL8T184-74" value="&lt;b&gt;&lt;font style=&quot;font-size: 14px;&quot;&gt;name&lt;/font&gt;&lt;/b&gt;" style="ellipse;whiteSpace=wrap;html=1;" parent="1" vertex="1">
          <mxGeometry x="13.5" y="449" width="100" height="50" as="geometry" />
        </mxCell>
        <mxCell id="secLKcbEcYvKdAL8T184-75" value="SETS" style="rhombus;whiteSpace=wrap;html=1;fillColor=#dae8fc;strokeColor=#6c8ebf;fontStyle=1;fontSize=14;" parent="1" vertex="1">
          <mxGeometry x="390" y="360" width="80" height="80" as="geometry" />
        </mxCell>
        <mxCell id="secLKcbEcYvKdAL8T184-76" value="" style="endArrow=none;html=1;rounded=0;exitX=1;exitY=0.5;exitDx=0;exitDy=0;entryX=0;entryY=0.5;entryDx=0;entryDy=0;fontStyle=1;fontSize=14;" parent="1" source="secLKcbEcYvKdAL8T184-72" target="secLKcbEcYvKdAL8T184-75" edge="1">
          <mxGeometry width="50" height="50" relative="1" as="geometry">
            <mxPoint x="320" y="350" as="sourcePoint" />
            <mxPoint x="370" y="300" as="targetPoint" />
          </mxGeometry>
        </mxCell>
        <mxCell id="secLKcbEcYvKdAL8T184-109" value="n" style="edgeLabel;html=1;align=center;verticalAlign=middle;resizable=0;points=[];fontStyle=1;fontSize=14;" parent="secLKcbEcYvKdAL8T184-76" vertex="1" connectable="0">
          <mxGeometry x="0.3579" y="-2" relative="1" as="geometry">
            <mxPoint as="offset" />
          </mxGeometry>
        </mxCell>
        <mxCell id="secLKcbEcYvKdAL8T184-77" value="" style="endArrow=none;html=1;rounded=0;entryX=0;entryY=1;entryDx=0;entryDy=0;exitX=1;exitY=0.5;exitDx=0;exitDy=0;fontStyle=1;fontSize=14;" parent="1" source="secLKcbEcYvKdAL8T184-75" target="secLKcbEcYvKdAL8T184-47" edge="1">
          <mxGeometry width="50" height="50" relative="1" as="geometry">
            <mxPoint x="430" y="360" as="sourcePoint" />
            <mxPoint x="400" y="300" as="targetPoint" />
            <Array as="points">
              <mxPoint x="530" y="400" />
            </Array>
          </mxGeometry>
        </mxCell>
        <mxCell id="secLKcbEcYvKdAL8T184-78" value="" style="endArrow=none;html=1;rounded=0;entryX=0.5;entryY=1;entryDx=0;entryDy=0;exitX=1;exitY=0.5;exitDx=0;exitDy=0;fontStyle=1;fontSize=14;" parent="1" source="secLKcbEcYvKdAL8T184-73" target="secLKcbEcYvKdAL8T184-72" edge="1">
          <mxGeometry width="50" height="50" relative="1" as="geometry">
            <mxPoint x="130" y="490" as="sourcePoint" />
            <mxPoint x="180" y="440" as="targetPoint" />
          </mxGeometry>
        </mxCell>
        <mxCell id="secLKcbEcYvKdAL8T184-79" value="" style="endArrow=none;html=1;rounded=0;entryX=0.5;entryY=1;entryDx=0;entryDy=0;exitX=1;exitY=0.5;exitDx=0;exitDy=0;fontStyle=1;fontSize=14;" parent="1" source="secLKcbEcYvKdAL8T184-74" target="secLKcbEcYvKdAL8T184-72" edge="1">
          <mxGeometry width="50" height="50" relative="1" as="geometry">
            <mxPoint x="330" y="510" as="sourcePoint" />
            <mxPoint x="380" y="460" as="targetPoint" />
          </mxGeometry>
        </mxCell>
        <mxCell id="secLKcbEcYvKdAL8T184-85" value="Client" style="rounded=0;whiteSpace=wrap;html=1;fillColor=#ffe6cc;strokeColor=#d79b00;fontStyle=1;fontSize=14;" parent="1" vertex="1">
          <mxGeometry x="807" y="640" width="120" height="60" as="geometry" />
        </mxCell>
        <mxCell id="secLKcbEcYvKdAL8T184-86" value="client_id" style="ellipse;whiteSpace=wrap;html=1;fontStyle=1;fontSize=14;" parent="1" vertex="1">
          <mxGeometry x="622" y="562" width="90" height="50" as="geometry" />
        </mxCell>
        <mxCell id="secLKcbEcYvKdAL8T184-87" value="client_name" style="ellipse;whiteSpace=wrap;html=1;fontStyle=1;fontSize=14;" parent="1" vertex="1">
          <mxGeometry x="557" y="650" width="110" height="60" as="geometry" />
        </mxCell>
        <mxCell id="secLKcbEcYvKdAL8T184-89" value="" style="endArrow=none;html=1;rounded=0;entryX=0;entryY=0.5;entryDx=0;entryDy=0;exitX=0.5;exitY=0;exitDx=0;exitDy=0;fontStyle=1;fontSize=14;" parent="1" source="secLKcbEcYvKdAL8T184-87" target="secLKcbEcYvKdAL8T184-85" edge="1">
          <mxGeometry width="50" height="50" relative="1" as="geometry">
            <mxPoint x="270" y="710" as="sourcePoint" />
            <mxPoint x="320" y="660" as="targetPoint" />
          </mxGeometry>
        </mxCell>
        <mxCell id="secLKcbEcYvKdAL8T184-90" value="" style="endArrow=none;html=1;rounded=0;entryX=0;entryY=0.5;entryDx=0;entryDy=0;exitX=1;exitY=0.5;exitDx=0;exitDy=0;fontStyle=1;fontSize=14;" parent="1" source="secLKcbEcYvKdAL8T184-86" target="secLKcbEcYvKdAL8T184-85" edge="1">
          <mxGeometry width="50" height="50" relative="1" as="geometry">
            <mxPoint x="260" y="640" as="sourcePoint" />
            <mxPoint x="310" y="590" as="targetPoint" />
          </mxGeometry>
        </mxCell>
        <mxCell id="secLKcbEcYvKdAL8T184-91" value="PROVIDES" style="rhombus;whiteSpace=wrap;html=1;fillColor=#dae8fc;strokeColor=#6c8ebf;fontStyle=1;fontSize=14;" parent="1" vertex="1">
          <mxGeometry x="1090" y="624" width="116" height="92" as="geometry" />
        </mxCell>
        <mxCell id="secLKcbEcYvKdAL8T184-92" value="" style="endArrow=none;html=1;rounded=0;entryX=0;entryY=0.5;entryDx=0;entryDy=0;exitX=1;exitY=0.5;exitDx=0;exitDy=0;fontStyle=1;fontSize=14;" parent="1" source="secLKcbEcYvKdAL8T184-85" target="secLKcbEcYvKdAL8T184-91" edge="1">
          <mxGeometry width="50" height="50" relative="1" as="geometry">
            <mxPoint x="490" y="530" as="sourcePoint" />
            <mxPoint x="540" y="480" as="targetPoint" />
          </mxGeometry>
        </mxCell>
        <mxCell id="secLKcbEcYvKdAL8T184-108" value="n" style="edgeLabel;html=1;align=center;verticalAlign=middle;resizable=0;points=[];fontStyle=1;fontSize=14;" parent="secLKcbEcYvKdAL8T184-92" vertex="1" connectable="0">
          <mxGeometry x="0.1489" y="2" relative="1" as="geometry">
            <mxPoint as="offset" />
          </mxGeometry>
        </mxCell>
        <mxCell id="secLKcbEcYvKdAL8T184-93" value="project_id" style="ellipse;whiteSpace=wrap;html=1;fontStyle=1;fontSize=14;" parent="1" vertex="1">
          <mxGeometry x="607" y="757" width="110" height="60" as="geometry" />
        </mxCell>
        <mxCell id="secLKcbEcYvKdAL8T184-94" value="details" style="rounded=0;whiteSpace=wrap;html=1;fillColor=#ffe6cc;strokeColor=#d79b00;fontStyle=1;fontSize=14;" parent="1" vertex="1">
          <mxGeometry x="1344" y="490" width="120" height="60" as="geometry" />
        </mxCell>
        <mxCell id="secLKcbEcYvKdAL8T184-97" value="Regular_pay" style="ellipse;whiteSpace=wrap;html=1;fontStyle=1;fontSize=14;" parent="1" vertex="1">
          <mxGeometry x="1569" y="341" width="105" height="60" as="geometry" />
        </mxCell>
        <mxCell id="secLKcbEcYvKdAL8T184-98" value="Overtime_pay" style="ellipse;whiteSpace=wrap;html=1;fontStyle=1;fontSize=14;" parent="1" vertex="1">
          <mxGeometry x="1391" y="281" width="135" height="60" as="geometry" />
        </mxCell>
        <mxCell id="secLKcbEcYvKdAL8T184-99" value="" style="endArrow=none;html=1;rounded=0;entryX=0;entryY=0.5;entryDx=0;entryDy=0;exitX=1;exitY=0.5;exitDx=0;exitDy=0;fontStyle=1;fontSize=14;" parent="1" source="secLKcbEcYvKdAL8T184-91" target="secLKcbEcYvKdAL8T184-94" edge="1">
          <mxGeometry width="50" height="50" relative="1" as="geometry">
            <mxPoint x="790" y="690" as="sourcePoint" />
            <mxPoint x="840" y="640" as="targetPoint" />
          </mxGeometry>
        </mxCell>
        <mxCell id="secLKcbEcYvKdAL8T184-100" value="" style="endArrow=none;html=1;rounded=0;entryX=0.5;entryY=1;entryDx=0;entryDy=0;exitX=0.5;exitY=0;exitDx=0;exitDy=0;fontStyle=1;fontSize=14;" parent="1" source="secLKcbEcYvKdAL8T184-94" target="secLKcbEcYvKdAL8T184-98" edge="1">
          <mxGeometry width="50" height="50" relative="1" as="geometry">
            <mxPoint x="1567.0000000000005" y="690" as="sourcePoint" />
            <mxPoint x="1417.0000000000005" y="430" as="targetPoint" />
          </mxGeometry>
        </mxCell>
        <mxCell id="secLKcbEcYvKdAL8T184-101" value="" style="endArrow=none;html=1;rounded=0;exitX=0.5;exitY=0;exitDx=0;exitDy=0;entryX=0;entryY=0.5;entryDx=0;entryDy=0;fontStyle=1;fontSize=14;" parent="1" source="secLKcbEcYvKdAL8T184-94" target="secLKcbEcYvKdAL8T184-97" edge="1">
          <mxGeometry width="50" height="50" relative="1" as="geometry">
            <mxPoint x="1020" y="730" as="sourcePoint" />
            <mxPoint x="1070" y="680" as="targetPoint" />
          </mxGeometry>
        </mxCell>
        <mxCell id="secLKcbEcYvKdAL8T184-104" value="" style="endArrow=none;html=1;rounded=0;entryX=1;entryY=1;entryDx=0;entryDy=0;exitX=0;exitY=0.5;exitDx=0;exitDy=0;fontStyle=1;fontSize=14;" parent="1" source="secLKcbEcYvKdAL8T184-94" target="secLKcbEcYvKdAL8T184-72" edge="1">
          <mxGeometry width="50" height="50" relative="1" as="geometry">
            <mxPoint x="585" y="555" as="sourcePoint" />
            <mxPoint x="255" y="430" as="targetPoint" />
            <Array as="points">
              <mxPoint x="446" y="502" />
            </Array>
          </mxGeometry>
        </mxCell>
        <mxCell id="ejg2ZttmuCb_PsUVtkLd-2" value="" style="endArrow=none;html=1;rounded=0;entryX=0;entryY=0.5;entryDx=0;entryDy=0;exitX=0.5;exitY=0;exitDx=0;exitDy=0;fontStyle=1;fontSize=14;" edge="1" parent="1" source="secLKcbEcYvKdAL8T184-93" target="secLKcbEcYvKdAL8T184-85">
          <mxGeometry width="50" height="50" relative="1" as="geometry">
            <mxPoint x="622" y="660" as="sourcePoint" />
            <mxPoint x="817" y="680" as="targetPoint" />
          </mxGeometry>
        </mxCell>
        <mxCell id="ejg2ZttmuCb_PsUVtkLd-4" value="Views" style="rhombus;whiteSpace=wrap;html=1;fillColor=#dae8fc;strokeColor=#6c8ebf;fontStyle=1;fontSize=14;" vertex="1" parent="1">
          <mxGeometry x="150" y="727" width="80" height="80" as="geometry" />
        </mxCell>
        <mxCell id="ejg2ZttmuCb_PsUVtkLd-5" value="" style="endArrow=none;html=1;rounded=0;entryX=0.5;entryY=1;entryDx=0;entryDy=0;exitX=0.5;exitY=0;exitDx=0;exitDy=0;fontStyle=1;fontSize=14;" edge="1" parent="1" source="ejg2ZttmuCb_PsUVtkLd-4" target="secLKcbEcYvKdAL8T184-72">
          <mxGeometry width="50" height="50" relative="1" as="geometry">
            <mxPoint x="216" y="684" as="sourcePoint" />
            <mxPoint x="266" y="634" as="targetPoint" />
          </mxGeometry>
        </mxCell>
        <mxCell id="ejg2ZttmuCb_PsUVtkLd-6" value="Total_Salary" style="rounded=0;whiteSpace=wrap;html=1;fillColor=#ffe6cc;strokeColor=#d79b00;fontStyle=1;fontSize=14;" vertex="1" parent="1">
          <mxGeometry x="132" y="953" width="120" height="60" as="geometry" />
        </mxCell>
        <mxCell id="ejg2ZttmuCb_PsUVtkLd-7" value="" style="endArrow=none;html=1;rounded=0;entryX=0.5;entryY=1;entryDx=0;entryDy=0;exitX=0.5;exitY=0;exitDx=0;exitDy=0;fontStyle=1;fontSize=14;" edge="1" parent="1" source="ejg2ZttmuCb_PsUVtkLd-6" target="ejg2ZttmuCb_PsUVtkLd-4">
          <mxGeometry width="50" height="50" relative="1" as="geometry">
            <mxPoint x="166" y="887" as="sourcePoint" />
            <mxPoint x="216" y="837" as="targetPoint" />
          </mxGeometry>
        </mxCell>
        <mxCell id="ejg2ZttmuCb_PsUVtkLd-14" value="n" style="edgeLabel;html=1;align=center;verticalAlign=middle;resizable=0;points=[];fontStyle=1;fontSize=14;" vertex="1" connectable="0" parent="ejg2ZttmuCb_PsUVtkLd-7">
          <mxGeometry x="0.0656" y="2" relative="1" as="geometry">
            <mxPoint y="-1" as="offset" />
          </mxGeometry>
        </mxCell>
        <mxCell id="ejg2ZttmuCb_PsUVtkLd-8" value="id" style="ellipse;whiteSpace=wrap;html=1;fontStyle=1;fontSize=14;" vertex="1" parent="1">
          <mxGeometry x="429" y="1022" width="111" height="68" as="geometry" />
        </mxCell>
        <mxCell id="ejg2ZttmuCb_PsUVtkLd-9" value="employee_id" style="ellipse;whiteSpace=wrap;html=1;fontStyle=1;fontSize=14;" vertex="1" parent="1">
          <mxGeometry x="359" y="1117" width="109" height="66" as="geometry" />
        </mxCell>
        <mxCell id="ejg2ZttmuCb_PsUVtkLd-10" value="total_payout" style="ellipse;whiteSpace=wrap;html=1;fontStyle=1;fontSize=14;" vertex="1" parent="1">
          <mxGeometry x="184" y="1159" width="111" height="70" as="geometry" />
        </mxCell>
        <mxCell id="ejg2ZttmuCb_PsUVtkLd-11" value="" style="endArrow=none;html=1;rounded=0;entryX=0.5;entryY=1;entryDx=0;entryDy=0;exitX=0.407;exitY=0.014;exitDx=0;exitDy=0;exitPerimeter=0;fontStyle=1;fontSize=14;" edge="1" parent="1" source="ejg2ZttmuCb_PsUVtkLd-10" target="ejg2ZttmuCb_PsUVtkLd-6">
          <mxGeometry width="50" height="50" relative="1" as="geometry">
            <mxPoint x="164" y="1132" as="sourcePoint" />
            <mxPoint x="214" y="1082" as="targetPoint" />
          </mxGeometry>
        </mxCell>
        <mxCell id="ejg2ZttmuCb_PsUVtkLd-12" value="" style="endArrow=none;html=1;rounded=0;entryX=0.5;entryY=1;entryDx=0;entryDy=0;exitX=0;exitY=0;exitDx=0;exitDy=0;fontStyle=1;fontSize=14;" edge="1" parent="1" source="ejg2ZttmuCb_PsUVtkLd-9" target="ejg2ZttmuCb_PsUVtkLd-6">
          <mxGeometry width="50" height="50" relative="1" as="geometry">
            <mxPoint x="293" y="1089" as="sourcePoint" />
            <mxPoint x="343" y="1039" as="targetPoint" />
          </mxGeometry>
        </mxCell>
        <mxCell id="ejg2ZttmuCb_PsUVtkLd-13" value="" style="endArrow=none;html=1;rounded=0;entryX=0;entryY=0.5;entryDx=0;entryDy=0;exitX=1;exitY=0.5;exitDx=0;exitDy=0;fontStyle=1;fontSize=14;" edge="1" parent="1" source="ejg2ZttmuCb_PsUVtkLd-6" target="ejg2ZttmuCb_PsUVtkLd-8">
          <mxGeometry width="50" height="50" relative="1" as="geometry">
            <mxPoint x="329" y="884" as="sourcePoint" />
            <mxPoint x="379" y="834" as="targetPoint" />
          </mxGeometry>
        </mxCell>
      </root>
    </mxGraphModel>
  </diagram>
</mxfile>
